<?xml version="1.0" standalone="no"?>
<!DOCTYPE svg PUBLIC "-//W3C//DTD SVG 20010904//EN"
 "http://www.w3.org/TR/2001/REC-SVG-20010904/DTD/svg10.dtd">
<svg version="1.0" xmlns="http://www.w3.org/2000/svg"
 width="550.000000pt" height="550.000000pt" viewBox="0 0 550.000000 550.000000"
 preserveAspectRatio="xMidYMid meet">
<metadata>
Created by potrace 1.11, written by Peter Selinger 2001-2013
</metadata>
<g transform="translate(0.000000,550.000000) scale(0.100000,-0.100000)"
fill="#000000" stroke="none">
<path d="M2405 5434 c-38 -9 -108 -33 -154 -55 -146 -71 -276 -224 -322 -377
-9 -31 -16 -41 -27 -37 -9 3 -34 10 -56 15 -231 50 -525 -15 -750 -164 -284
-189 -390 -513 -255 -780 78 -155 214 -228 422 -227 200 1 368 70 642 262 377
264 500 312 793 313 162 1 163 1 126 18 -55 24 -194 41 -272 34 -87 -9 -253
-50 -333 -82 -84 -34 -164 -82 -383 -226 -283 -187 -400 -234 -560 -226 -76 4
-103 10 -158 37 -204 97 -266 348 -145 591 31 62 143 190 167 190 6 0 -9 -29
-34 -64 -25 -35 -60 -94 -78 -132 -31 -64 -33 -76 -33 -174 0 -97 2 -110 31
-170 57 -119 160 -197 276 -207 53 -5 143 10 152 26 2 3 -35 6 -83 6 -73 1
-93 5 -136 27 -110 58 -166 150 -173 284 -12 230 154 458 388 529 137 41 412
27 551 -29 l60 -25 -7 47 c-8 64 12 164 46 231 99 196 392 306 644 241 165
-42 267 -131 321 -279 l14 -36 0 41 c1 23 -6 61 -14 84 -8 23 -15 46 -15 50 0
24 206 80 295 80 189 0 378 -104 451 -247 26 -51 29 -68 29 -148 0 -79 -4 -97
-28 -148 -39 -79 -112 -151 -190 -188 -69 -32 -191 -59 -265 -59 -64 0 -43
-17 44 -35 180 -38 347 6 465 124 77 78 110 152 117 261 14 259 -127 448 -388
517 -145 38 -361 15 -507 -54 l-60 -29 -61 57 c-140 128 -339 177 -547 133z"/>
<path d="M3286 4375 c-15 -35 -19 -199 -7 -301 29 -256 125 -580 188 -637 25
-22 57 -25 61 -6 1 9 -33 127 -78 262 -111 340 -144 484 -153 652 -1 38 -4 45
-11 30z"/>
<path d="M1800 3785 c89 -132 195 -321 277 -494 36 -73 66 -131 68 -129 2 2
-5 39 -16 82 -55 214 -186 456 -315 584 -36 34 -69 62 -74 62 -6 0 21 -47 60
-105z"/>
<path d="M4245 3698 c-178 -182 -693 -743 -984 -1072 -100 -113 -111 -152 -65
-220 l26 -38 -298 -299 c-164 -164 -301 -299 -304 -299 -5 0 -267 214 -453
370 -42 35 -77 72 -77 80 0 31 -59 107 -156 200 -140 135 -221 203 -1362 1148
-168 138 -310 252 -315 252 -6 0 -7 -54 -5 -137 4 -115 10 -152 32 -223 63
-193 195 -398 400 -623 209 -228 820 -789 962 -884 59 -39 130 -53 182 -35 28
10 38 3 281 -205 l252 -215 -114 -121 c-62 -67 -137 -151 -167 -187 -141 -172
-146 -306 -15 -406 56 -42 111 -43 193 -4 58 28 93 59 259 227 122 124 197
192 204 187 7 -4 89 -70 183 -147 238 -195 338 -257 415 -257 42 0 94 34 118
76 31 54 29 107 -6 169 -32 56 -203 225 -358 355 l-101 84 47 52 c83 92 513
544 518 544 2 0 57 -46 121 -101 64 -56 151 -128 195 -160 67 -50 85 -59 121
-59 57 0 89 25 256 196 220 226 913 1001 991 1108 37 50 39 108 6 157 -26 38
-192 186 -467 417 -233 195 -259 212 -324 212 l-51 0 -140 -142z m272 33 c110
-80 546 -454 605 -519 65 -72 62 -94 -26 -197 -146 -171 -698 -778 -940 -1035
-148 -156 -165 -166 -226 -135 -105 55 -657 563 -675 622 -8 29 3 49 78 136
102 120 550 606 925 1004 153 162 185 177 259 124z m-3747 -435 c228 -187 440
-360 471 -385 214 -174 529 -450 642 -561 80 -80 97 -102 97 -127 0 -63 -147
-223 -205 -223 -67 0 -172 77 -490 363 -257 231 -556 533 -665 670 -164 207
-272 417 -287 560 -5 50 -4 59 8 51 8 -4 201 -161 429 -348z m2610 -1073 l91
-88 -167 -180 c-92 -99 -220 -235 -283 -302 l-116 -123 -107 88 c-59 48 -106
90 -105 94 3 13 578 598 587 598 4 0 49 -39 100 -87z m-1140 -228 c85 -72 333
-280 550 -462 217 -182 404 -344 416 -359 62 -86 68 -131 24 -176 -27 -27 -36
-30 -71 -25 -22 3 -65 20 -94 38 -30 18 -287 228 -571 466 -284 239 -533 447
-552 463 l-35 29 48 53 c26 29 59 70 73 91 21 32 27 35 41 25 9 -7 86 -72 171
-143z m295 -642 c58 -48 105 -91 105 -96 0 -4 -69 -77 -152 -162 -114 -114
-166 -160 -202 -176 -61 -27 -105 -20 -140 22 -49 58 -26 155 65 269 42 53
208 230 216 230 2 0 51 -39 108 -87z"/>
<path d="M4274 3531 c-247 -227 -636 -672 -611 -697 9 -9 435 420 560 565 122
140 205 251 189 251 -5 0 -67 -53 -138 -119z"/>
<path d="M4938 2998 c-113 -99 -446 -432 -602 -602 -228 -247 -414 -476 -388
-476 17 0 348 318 522 501 310 327 586 649 555 649 -2 0 -42 -33 -87 -72z"/>
<path d="M3485 2661 c-52 -24 -121 -99 -134 -147 -20 -71 35 -107 107 -70 61
32 132 129 132 179 0 47 -48 64 -105 38z"/>
<path d="M480 3456 c0 -14 138 -175 220 -256 98 -98 404 -376 590 -536 239
-205 446 -362 550 -414 l45 -23 -20 23 c-20 23 -365 332 -550 492 -55 47 -109
95 -120 105 -49 46 -706 613 -710 613 -3 0 -5 -2 -5 -4z"/>
<path d="M3204 2160 c-24 -10 -74 -66 -74 -84 0 -7 6 -21 14 -31 13 -18 15
-18 40 -2 42 28 65 -2 28 -36 -23 -21 -61 -22 -90 -1 -24 17 -28 8 -11 -30 28
-60 112 -54 169 11 58 66 64 111 21 154 -30 29 -58 35 -97 19z"/>
<path d="M2894 1846 c-55 -55 -39 -118 22 -86 32 18 51 2 35 -28 -15 -29 -66
-38 -96 -18 -31 20 -34 20 -28 -3 18 -69 95 -82 160 -26 73 63 87 140 31 179
-39 27 -85 21 -124 -18z"/>
<path d="M2107 1962 c-23 -25 -21 -58 3 -82 26 -26 46 -25 75 5 30 29 31 49 5
75 -25 25 -62 26 -83 2z"/>
<path d="M2395 1726 c-29 -29 -31 -43 -9 -74 29 -42 104 -18 104 34 0 26 -20
50 -47 59 -17 4 -29 -1 -48 -19z"/>
<path d="M2686 1484 c-21 -20 -20 -58 0 -79 25 -24 75 -16 93 16 13 24 13 29
-2 53 -20 30 -66 35 -91 10z"/>
<path d="M2977 1232 c-24 -26 -21 -68 5 -86 32 -23 54 -20 77 10 26 33 26 49
1 74 -25 25 -62 26 -83 2z"/>
<path d="M2385 1315 c-57 -30 -83 -88 -51 -114 12 -10 20 -9 40 4 41 27 65 -5
28 -38 -23 -21 -66 -22 -97 -1 l-25 16 11 -31 c24 -67 88 -77 157 -25 41 32
75 103 66 138 -13 53 -77 78 -129 51z"/>
<path d="M1616 3800 c5 -8 27 -40 50 -70 102 -135 195 -311 304 -574 81 -196
96 -226 119 -226 10 0 74 29 142 65 283 148 450 230 554 270 277 108 534 141
587 75 24 -30 23 -34 -15 -72 -89 -88 -496 -262 -837 -358 -41 -12 -147 -34
-235 -50 -124 -22 -149 -29 -110 -30 128 -4 288 13 405 44 163 43 214 58 310
91 277 97 477 196 567 281 50 47 54 54 51 90 -3 34 -8 42 -48 64 -40 22 -58
25 -175 28 -281 8 -507 -65 -940 -303 -115 -63 -213 -114 -217 -113 -5 2 -31
54 -58 116 -107 247 -246 468 -376 600 -47 48 -82 80 -78 72z"/>
<path d="M3154 3520 c-149 -16 -346 -73 -491 -140 -81 -38 -178 -98 -170 -106
2 -2 47 16 99 41 206 95 479 168 688 181 60 4 95 10 84 14 -35 13 -138 18
-210 10z"/>
<path d="M2710 3041 c-58 -16 -175 -49 -260 -73 -85 -25 -168 -48 -183 -52
-15 -4 -25 -11 -22 -16 17 -27 169 3 350 68 122 44 225 88 225 96 0 4 -1 6 -2
6 -2 -1 -50 -14 -108 -29z"/>
<path d="M2663 2663 c-36 -7 -82 -60 -94 -108 l-11 -44 -25 30 c-116 137 -305
9 -223 -151 24 -47 67 -77 172 -120 43 -18 94 -43 113 -56 l35 -23 14 32 c7
18 46 68 85 112 86 95 111 139 111 197 0 96 -74 151 -177 131z"/>
<path d="M3269 1703 c-38 -3 -48 -8 -58 -30 -6 -14 -10 -27 -8 -29 2 -2 80 3
173 11 93 8 223 15 289 15 73 0 114 4 105 9 -38 23 -340 37 -501 24z"/>
<path d="M1980 1604 c-476 -63 -898 -189 -1039 -310 -44 -38 -81 -99 -81 -134
0 -60 49 -99 151 -121 128 -28 527 4 827 65 l107 21 28 53 c19 35 24 52 15 52
-7 0 -80 -13 -163 -30 -82 -16 -203 -36 -269 -45 -145 -19 -369 -22 -411 -5
-66 26 -82 66 -45 112 65 83 419 199 857 279 173 32 183 35 183 57 0 26 -6 26
-160 6z"/>
<path d="M3620 1420 c-117 -9 -346 -42 -356 -53 -3 -2 3 -23 12 -47 16 -39 19
-42 48 -35 176 36 558 55 752 36 214 -21 335 -59 388 -121 46 -55 32 -116 -32
-149 -49 -24 -60 -27 -327 -71 -262 -44 -376 -74 -490 -130 -72 -36 -212 -136
-203 -146 3 -2 33 12 69 31 92 49 230 92 335 106 193 24 354 -34 405 -146 23
-51 24 -99 0 -150 -76 -168 -395 -231 -726 -143 -70 19 -242 82 -254 94 -2 2
18 29 45 61 50 59 43 57 -34 -9 l-44 -37 -56 26 c-265 119 -386 164 -513 188
-292 55 -592 -58 -654 -246 -24 -72 -18 -189 13 -249 80 -153 241 -208 488
-165 216 38 443 150 617 306 l58 51 127 -50 c70 -28 177 -64 237 -79 96 -24
130 -27 265 -28 119 0 170 4 220 18 215 59 334 178 334 336 1 108 -34 175
-126 241 l-37 27 77 6 c208 17 389 112 408 215 9 44 -19 115 -58 147 -82 69
-244 123 -452 149 -150 20 -384 26 -536 16z m-890 -823 c103 -30 187 -62 298
-112 l84 -39 -39 -23 c-427 -264 -786 -339 -926 -195 -45 46 -58 81 -58 153
-1 66 15 100 68 150 82 79 161 100 348 95 111 -3 158 -9 225 -29z"/>
</g>
</svg>
