<?xml version="1.0" standalone="no"?>
<!DOCTYPE svg PUBLIC "-//W3C//DTD SVG 20010904//EN"
 "http://www.w3.org/TR/2001/REC-SVG-20010904/DTD/svg10.dtd">
<svg version="1.0" xmlns="http://www.w3.org/2000/svg"
 width="336.000000pt" height="336.000000pt" viewBox="0 0 336.000000 336.000000"
 preserveAspectRatio="xMidYMid meet">
<metadata>
Created by potrace 1.11, written by Peter Selinger 2001-2013
</metadata>
<g transform="translate(0.000000,336.000000) scale(0.100000,-0.100000)"
fill="#000000" stroke="none">
<path d="M1598 2954 c-2 -1 -32 -4 -67 -5 -54 -2 -118 -12 -216 -33 -378 -80
-734 -360 -912 -718 -54 -109 -103 -252 -119 -348 -3 -14 -7 -30 -9 -37 -6
-19 -19 -181 -19 -248 1 -350 143 -695 392 -949 258 -263 578 -403 942 -411
217 -4 362 20 545 92 180 71 313 157 453 296 214 209 361 490 397 757 3 25 8
53 11 63 10 34 6 291 -6 362 -45 281 -153 511 -334 716 -130 148 -246 236
-421 322 -73 36 -190 83 -208 85 -4 0 -47 10 -96 21 -49 12 -119 23 -157 26
-121 9 -173 12 -176 9z m167 -59 c44 -3 116 -14 160 -25 760 -181 1201 -960
964 -1700 -141 -439 -529 -794 -968 -885 -119 -24 -145 -27 -271 -30 -272 -5
-522 68 -752 221 -278 185 -469 454 -552 780 -49 193 -51 451 -4 629 5 22 11
47 13 55 9 44 72 195 111 267 174 321 476 558 826 652 93 25 123 30 228 37 47
4 87 8 89 10 2 2 20 1 40 -1 20 -2 72 -7 116 -10z"/>
<path d="M1254 2628 c3 -40 5 -99 6 -130 l0 -58 34 0 c32 0 35 3 38 31 l3 32
26 -38 27 -37 26 38 26 39 0 -33 c0 -30 2 -32 35 -32 35 0 35 0 36 48 0 26 3
84 5 130 l5 82 -46 0 c-42 0 -47 -3 -62 -35 -9 -19 -20 -35 -23 -35 -3 0 -14
16 -23 35 -16 33 -19 35 -67 35 l-51 0 5 -72z"/>
<path d="M1746 2648 c2 -49 4 -53 28 -56 25 -3 26 -6 28 -65 0 -34 1 -68 1
-74 -1 -9 14 -13 42 -13 51 0 55 7 55 91 0 56 1 59 25 59 17 0 25 6 26 18 1 9
2 34 3 55 l2 37 -106 0 -105 0 1 -52z"/>
<path d="M1583 2499 c-14 -5 -23 -17 -23 -29 0 -25 37 -42 63 -28 41 21 5 74
-40 57z"/>
<path d="M2013 2499 c-14 -5 -23 -17 -23 -29 0 -25 37 -42 63 -28 41 21 5 74
-40 57z"/>
<path d="M2127 2284 c-80 -42 -77 -207 4 -249 83 -44 160 16 162 124 1 104
-83 168 -166 125z m74 -124 c7 -52 3 -67 -16 -66 -16 1 -21 9 -23 39 -3 32 0
37 17 37 12 0 22 -4 22 -10z"/>
<path d="M1085 2278 c-2 -7 -13 -55 -24 -106 -12 -52 -24 -105 -27 -119 -7
-24 -5 -25 30 -21 20 2 36 0 36 -5 0 -4 6 -5 13 0 6 4 40 6 73 4 l62 -3 -29
124 c-16 67 -29 126 -29 131 0 13 -100 8 -105 -5z m42 -188 c-2 -29 -17 -24
-17 6 0 14 4 23 9 19 6 -3 9 -14 8 -25z"/>
<path d="M1277 2183 c3 -60 6 -118 7 -130 0 -19 6 -23 33 -23 32 0 33 1 33 40
l0 41 55 -42 c31 -23 57 -40 59 -38 2 2 7 61 10 132 l6 127 -35 0 c-31 0 -35
-3 -35 -26 l0 -27 -26 27 c-21 20 -37 26 -70 26 l-44 0 7 -107z"/>
<path d="M1519 2286 c-11 -11 3 -251 15 -258 6 -4 34 -8 62 -8 88 0 144 53
144 137 0 89 -41 126 -145 131 -38 2 -73 1 -76 -2z m139 -133 c11 -20 -2 -63
-18 -63 -5 0 -10 18 -10 40 0 42 13 52 28 23z"/>
<path d="M1915 2280 c-63 -26 -93 -115 -60 -183 23 -48 73 -79 122 -75 31 2
39 8 49 34 l13 32 -34 -3 c-34 -3 -55 14 -55 44 0 19 39 51 63 51 21 0 22 4
19 55 l-4 55 -46 -1 c-26 0 -56 -4 -67 -9z"/>
<path d="M1208 1908 c-16 -5 -28 -13 -28 -16 0 -4 -17 -8 -37 -8 -64 -3 -106
-80 -68 -130 17 -22 20 -105 4 -121 -8 -8 -6 -16 9 -31 10 -10 22 -30 25 -43
4 -13 18 -37 33 -52 35 -38 27 -68 -25 -92 -22 -9 -52 -30 -67 -46 -15 -16
-33 -29 -38 -29 -6 0 -49 -36 -95 -79 l-85 -79 19 -29 c48 -73 127 -174 144
-183 11 -5 46 -11 80 -12 44 -2 60 -7 56 -15 -2 -7 0 -13 6 -13 6 0 7 -5 3
-12 -4 -6 1 -17 11 -24 17 -13 17 -14 0 -41 -10 -15 -31 -41 -47 -56 -33 -32
-28 -52 10 -42 25 6 47 25 74 66 20 31 56 12 114 -59 69 -85 114 -99 149 -45
25 37 11 71 -51 128 l-54 50 13 38 c8 20 15 35 18 33 8 -9 90 70 93 89 1 10
11 24 22 29 10 6 24 17 30 25 12 15 8 74 -7 102 -7 15 -4 16 25 9 41 -9 57 -1
53 27 -7 51 -52 62 -81 22 -12 -18 -15 -16 -31 28 -17 46 -77 113 -101 113 -6
0 -23 9 -37 20 -29 23 -28 37 9 87 13 17 24 36 24 42 0 6 9 19 21 30 16 14 19
25 13 43 -13 38 -12 92 2 113 41 64 -4 151 -72 141 -11 -2 -35 5 -54 15 -39
21 -44 22 -82 7z m-127 -695 c19 -17 44 -53 36 -53 -6 0 -67 59 -67 65 0 9 10
5 31 -12z m259 2 c-6 -8 -8 -20 -4 -26 4 -7 3 -9 -3 -6 -6 4 -26 -8 -45 -26
-28 -25 -35 -39 -34 -65 1 -24 -3 -32 -16 -32 -15 0 -18 9 -18 54 0 43 -5 58
-25 80 -14 15 -25 29 -25 32 0 2 41 4 91 4 79 0 90 -2 79 -15z m-280 -93 c0
-15 -89 77 -90 93 0 5 20 -11 45 -35 25 -24 45 -50 45 -58z m-92 4 c23 -24 42
-48 42 -55 0 -6 -8 -3 -17 7 -74 78 -86 92 -77 92 5 0 28 -20 52 -44z"/>
<path d="M2392 1879 c-39 -20 -65 -57 -82 -118 -5 -21 -12 -25 -33 -23 -23 3
-30 -2 -41 -30 -8 -18 -13 -35 -11 -38 4 -7 17 -123 19 -177 2 -48 7 -54 58
-71 54 -19 76 -23 138 -29 30 -2 62 -7 70 -10 25 -10 62 -2 82 17 17 16 18 19
3 33 -12 13 -22 14 -42 6 -14 -5 -27 -8 -29 -6 -5 5 27 120 42 149 8 15 15 30
15 33 0 2 7 21 15 41 25 59 28 117 9 158 -34 72 -136 103 -213 65z"/>
<path d="M1830 1548 c0 -9 4 -19 9 -22 17 -11 19 -46 4 -62 -8 -8 -13 -18 -9
-21 8 -8 35 28 36 47 0 8 -9 29 -20 45 -14 20 -20 25 -20 13z"/>
<path d="M1792 1510 c10 -16 10 -24 0 -40 -15 -24 -15 -33 -1 -25 28 18 27 85
-1 85 -6 0 -5 -9 2 -20z"/>
<path d="M1905 1510 c3 -5 8 -10 11 -10 2 0 4 5 4 10 0 6 -5 10 -11 10 -5 0
-7 -4 -4 -10z"/>
<path d="M1736 1468 c-19 -27 -21 -45 -3 -26 28 30 39 48 29 48 -6 0 -18 -10
-26 -22z"/>
<path d="M1897 1465 c-10 -15 -13 -26 -7 -30 5 -3 10 0 10 9 0 8 5 16 12 18 6
2 9 9 7 15 -2 6 -12 1 -22 -12z"/>
<path d="M1720 1420 c-30 -3 -55 -9 -55 -15 0 -20 40 -90 60 -107 20 -16 20
-17 1 -65 -10 -26 -19 -57 -20 -68 -2 -32 25 -23 43 15 15 33 19 35 73 38 l57
3 -1 -29 c-1 -39 8 -52 38 -52 42 0 54 62 14 75 -10 3 -20 19 -24 36 -4 24 0
35 18 54 14 14 28 35 31 47 4 13 14 30 22 39 12 14 12 17 -4 23 -23 9 -180 13
-253 6z m147 -173 c-5 -16 -87 -20 -87 -4 0 21 6 23 50 19 23 -2 39 -9 37 -15z"/>
<path d="M2228 1113 c-20 -5 -25 -43 -5 -44 6 0 -12 -11 -41 -24 -58 -27 -71
-45 -52 -80 7 -13 9 -28 6 -34 -4 -6 -2 -11 4 -11 5 0 17 -15 24 -32 47 -108
47 -108 71 -108 26 0 43 6 153 57 40 18 77 33 82 33 17 0 11 37 -16 97 -14 32
-23 66 -21 75 3 10 0 16 -7 15 -6 -1 -12 10 -14 25 -4 36 -39 43 -96 18 -25
-10 -45 -16 -45 -12 5 31 -4 35 -43 25z"/>
</g>
</svg>
