<?xml version="1.0" standalone="no"?>
<!DOCTYPE svg PUBLIC "-//W3C//DTD SVG 20010904//EN"
 "http://www.w3.org/TR/2001/REC-SVG-20010904/DTD/svg10.dtd">
<svg version="1.0" xmlns="http://www.w3.org/2000/svg"
 width="275.000000pt" height="275.000000pt" viewBox="0 0 275.000000 275.000000"
 preserveAspectRatio="xMidYMid meet">
<metadata>
Created by potrace 1.11, written by Peter Selinger 2001-2013
</metadata>
<g transform="translate(0.000000,275.000000) scale(0.100000,-0.100000)"
fill="#000000" stroke="none">
<path d="M1175 2734 c-550 -84 -992 -480 -1130 -1015 -45 -172 -54 -426 -22
-596 20 -102 76 -271 118 -355 34 -69 112 -192 135 -215 8 -8 14 -18 14 -23 0
-15 193 -204 255 -251 172 -128 411 -233 585 -256 19 -3 55 -8 78 -13 51 -9
307 -6 372 5 446 73 827 350 1025 745 142 284 181 650 100 959 -80 309 -272
588 -532 774 -162 115 -380 208 -548 232 -22 3 -47 8 -55 12 -30 11 -317 9
-395 -3z m400 -49 c521 -83 949 -470 1080 -975 34 -132 42 -208 40 -363 -7
-428 -203 -794 -570 -1065 -57 -42 -280 -152 -308 -152 -7 0 -17 -4 -22 -9
-10 -8 -153 -44 -225 -56 -19 -4 -96 -8 -171 -10 -666 -17 -1241 473 -1336
1140 -12 80 -8 324 6 405 16 88 67 250 107 335 223 476 701 772 1224 759 74
-1 153 -6 175 -9z"/>
<path d="M947 2398 c2 -24 4 -81 6 -128 l3 -85 34 0 c33 0 35 2 33 30 l-2 30
31 -34 31 -35 23 30 c13 16 24 26 25 22 1 -5 3 -12 4 -18 1 -5 3 -15 4 -21 0
-5 16 -9 33 -7 37 3 34 -8 39 163 l2 90 -46 3 c-43 3 -46 1 -62 -32 -19 -40
-27 -40 -45 4 -12 28 -16 30 -65 30 l-52 0 4 -42z"/>
<path d="M1440 2385 c0 -51 2 -55 24 -55 19 0 24 -6 30 -37 3 -21 6 -55 6 -75
l0 -38 45 0 c44 0 45 1 46 33 1 29 4 72 8 104 0 6 11 13 23 15 20 3 23 10 26
56 l4 52 -106 0 -106 0 0 -55z"/>
<path d="M1266 2231 c-17 -19 -17 -20 3 -40 33 -33 88 -2 63 35 -15 23 -48 25
-66 5z"/>
<path d="M1710 2239 c0 -5 -4 -7 -10 -4 -6 3 -10 -5 -10 -19 0 -45 62 -56 76
-13 4 14 1 25 -12 34 -21 16 -44 17 -44 2z"/>
<path d="M1227 2033 c-17 -4 -18 -15 -12 -131 3 -69 7 -128 9 -130 7 -6 80 -6
117 1 113 22 134 194 29 249 -33 17 -100 22 -143 11z m122 -119 c9 6 13 -32 6
-61 -9 -40 -34 -28 -30 15 5 64 6 68 12 54 2 -6 8 -10 12 -8z"/>
<path d="M1605 2026 c-113 -49 -85 -237 39 -260 44 -8 72 6 79 39 4 23 2 26
-17 21 -31 -8 -66 19 -61 45 6 33 25 49 55 49 27 0 28 2 26 48 -1 26 -6 53
-10 60 -10 16 -73 15 -111 -2z"/>
<path d="M1814 2021 c-78 -48 -69 -195 15 -245 28 -16 38 -17 71 -7 56 17 84
60 85 132 0 65 -18 105 -57 125 -37 19 -77 18 -114 -5z m71 -101 c-3 -5 -1
-10 4 -10 16 0 13 -52 -4 -74 -14 -18 -15 -18 -25 8 -5 15 -10 32 -10 37 0 14
24 49 33 49 4 0 5 -4 2 -10z"/>
<path d="M775 2008 c-6 -29 -44 -204 -48 -221 -1 -6 10 -13 26 -15 17 -2 27 1
27 10 0 9 3 9 10 -2 8 -12 13 -13 30 -2 12 7 20 8 20 2 0 -5 23 -10 50 -10 28
0 50 3 49 8 0 4 -13 61 -28 127 l-28 120 -51 3 c-47 3 -52 1 -57 -20z m45
-163 c0 -8 -4 -15 -10 -15 -5 0 -10 7 -10 15 0 8 5 15 10 15 6 0 10 -7 10 -15z"/>
<path d="M966 1993 c3 -32 12 -167 13 -210 1 -8 14 -13 31 -13 31 0 36 11 30
63 -2 22 15 15 74 -32 21 -17 42 -31 47 -31 8 0 5 33 -6 49 -3 5 -1 12 4 15 4
3 9 42 10 87 1 45 3 87 4 93 1 6 -15 12 -37 14 -31 3 -38 0 -33 -12 9 -24 -8
-28 -28 -6 -13 15 -31 20 -65 20 l-47 0 3 -37z"/>
<path d="M988 1632 c-14 -2 -32 -10 -38 -18 -7 -8 -27 -14 -45 -14 -37 0 -76
-33 -82 -69 -2 -13 4 -38 13 -57 12 -25 15 -51 11 -94 -4 -49 -2 -62 14 -76
10 -9 18 -19 17 -23 -3 -15 22 -59 37 -65 32 -12 14 -57 -34 -84 -25 -14 -56
-35 -70 -48 -14 -13 -29 -24 -33 -24 -7 0 -87 -71 -144 -128 -30 -30 -37 -62
-13 -62 5 0 8 -3 7 -7 -4 -10 120 -173 135 -179 7 -2 41 -6 77 -8 61 -3 65 -5
62 -26 -2 -14 4 -27 17 -37 23 -16 23 -15 -37 -81 -18 -20 -30 -42 -27 -50 3
-7 5 -15 5 -18 0 -20 99 67 100 88 0 3 6 5 13 4 35 -6 55 -20 85 -60 57 -76
80 -95 110 -90 15 3 35 14 45 25 30 37 21 64 -41 127 -46 45 -57 62 -52 77 4
11 6 23 3 27 -2 4 7 12 19 19 35 18 92 72 94 89 1 6 2 15 3 20 0 6 6 10 12 10
31 0 55 63 40 103 -11 29 8 49 34 34 27 -15 48 16 33 49 -14 30 -50 32 -77 3
l-20 -21 -10 38 c-14 50 -44 85 -106 121 -60 35 -67 61 -31 104 14 17 29 41
32 54 3 13 12 26 20 29 14 6 19 37 7 50 -14 13 -9 72 8 106 10 19 16 44 14 55
-2 11 -4 23 -4 27 -2 19 -48 48 -76 48 -17 0 -35 4 -40 8 -19 16 -60 27 -87
24z m-126 -724 c10 -9 14 -19 10 -22 -8 -5 -18 5 -52 49 -14 19 -14 19 5 5 11
-8 28 -22 37 -32z m241 27 c-3 -10 -9 -17 -62 -69 -19 -19 -28 -37 -26 -53 1
-15 -5 -27 -17 -34 -18 -10 -19 -7 -18 33 3 69 1 76 -25 102 -14 14 -25 27
-25 29 0 2 39 3 88 3 52 -1 86 -5 85 -11z m-280 -97 c-5 -9 -92 82 -93 97 0 6
22 -12 49 -40 27 -27 47 -53 44 -57z m-43 -54 c0 -11 -13 -1 -55 44 -25 26
-45 51 -45 57 0 5 23 -14 50 -43 28 -29 50 -55 50 -58z"/>
<path d="M2172 1606 c-42 -14 -77 -56 -93 -111 -12 -40 -15 -43 -41 -40 -24 3
-31 -1 -39 -23 -6 -15 -8 -49 -5 -77 4 -27 8 -80 9 -118 2 -37 8 -71 13 -76
14 -12 114 -43 154 -46 19 -2 43 -6 53 -10 11 -5 17 -2 17 6 0 9 3 10 8 4 6
-8 29 -16 52 -17 39 -2 73 23 63 48 -4 11 -16 14 -42 12 -20 -2 -35 1 -34 5 1
4 5 22 8 40 4 17 25 76 46 130 40 100 47 145 28 194 -12 31 -44 65 -53 56 -3
-4 -6 -2 -6 4 0 23 -90 35 -138 19z"/>
<path d="M1590 1270 c0 -6 7 -22 16 -35 15 -23 15 -27 0 -50 -9 -14 -12 -25
-7 -25 15 0 31 35 29 62 -2 23 -38 68 -38 48z"/>
<path d="M1550 1238 c0 -10 5 -18 10 -18 16 0 12 -18 -10 -40 -10 -10 -15 -22
-11 -25 9 -5 41 37 41 53 0 4 -7 17 -15 28 -13 17 -14 17 -15 2z"/>
<path d="M1500 1185 c-19 -36 -7 -40 14 -5 9 17 13 30 8 30 -5 0 -15 -11 -22
-25z"/>
<path d="M1656 1178 l-19 -33 26 24 c15 13 24 28 21 32 -7 13 -8 12 -28 -23z"/>
<path d="M1427 1134 c-8 -9 41 -104 63 -123 18 -15 18 -18 -7 -79 -14 -35 -22
-66 -19 -70 12 -11 39 13 50 44 10 29 15 31 69 33 l57 2 -2 -28 c-3 -38 8 -53
37 -53 40 0 56 45 24 68 -11 8 -25 25 -30 39 -8 20 -4 31 21 61 16 20 30 44
30 53 0 9 7 19 15 23 8 3 12 12 9 21 -5 13 -31 15 -158 15 -84 0 -155 -3 -159
-6z m200 -167 c-2 -7 -22 -13 -45 -15 -32 -2 -42 0 -42 12 0 10 12 14 46 14
30 0 44 -4 41 -11z"/>
<path d="M1993 830 c-24 -10 -32 -40 -10 -40 6 -1 -14 -14 -45 -31 -58 -29
-67 -44 -48 -77 5 -9 26 -54 47 -99 20 -45 43 -85 50 -87 15 -6 244 89 254
106 7 10 -4 44 -38 115 -8 18 -13 40 -9 48 3 9 2 14 -3 11 -5 -3 -14 8 -20 24
-14 41 -31 45 -87 21 -52 -23 -54 -24 -53 -13 5 32 -2 36 -38 22z"/>
</g>
</svg>
