<?xml version="1.0" standalone="no"?>
<!DOCTYPE svg PUBLIC "-//W3C//DTD SVG 20010904//EN"
 "http://www.w3.org/TR/2001/REC-SVG-20010904/DTD/svg10.dtd">
<svg version="1.0" xmlns="http://www.w3.org/2000/svg"
 width="1184.000000pt" height="1184.000000pt" viewBox="0 0 1184.000000 1184.000000"
 preserveAspectRatio="xMidYMid meet">
<metadata>
Created by potrace 1.11, written by Peter Selinger 2001-2013
</metadata>
<g transform="translate(0.000000,1184.000000) scale(0.100000,-0.100000)"
fill="#000000" stroke="none">
<path d="M30 5920 l0 -5890 5890 0 5890 0 0 5890 0 5890 -5890 0 -5890 0 0
-5890z m9830 4310 l0 -210 -1465 0 -1465 0 0 -1112 c0 -611 2 -1109 4 -1107 2
2 83 265 181 584 97 319 194 637 216 708 l40 127 1232 -2 1232 -3 3 -132 3
-133 -523 -2 -523 -3 0 -3265 0 -3265 523 -3 523 -2 -3 -133 -3 -132 -1452 -3
-1453 -2 -2 -258 -3 -257 -242 -3 -243 -2 0 1846 c0 1016 -2 1845 -4 1843 -5
-5 -137 -436 -616 -2014 -160 -528 -305 -1004 -321 -1057 l-30 -98 -112 0
c-62 0 -117 4 -122 8 -6 4 -27 61 -47 127 -20 66 -151 498 -291 960 -141 462
-549 1805 -907 2985 -807 2657 -860 2833 -867 2842 -2 5 -9 6 -14 3 -5 -4 -9
-1287 -9 -3325 0 -3016 1 -3318 16 -3324 9 -3 252 -6 540 -6 l524 0 0 -135 0
-135 -1197 2 -1198 3 -3 132 -3 133 525 0 c468 0 525 2 530 16 8 20 8 6488 0
6508 -5 14 -62 16 -530 16 l-525 0 3 133 3 132 1262 3 1262 2 30 -97 c90 -293
1481 -4894 1481 -4898 0 -3 6 -5 13 -5 8 0 65 172 159 483 81 265 215 704 298
975 l150 493 0 1924 0 1925 -1460 0 -1460 0 0 203 c0 112 3 207 7 210 3 4
1430 7 3170 7 l3163 0 0 -210z m-1594 -9364 c15 -40 -111 -208 -225 -298 -101
-81 -168 -107 -199 -76 -30 30 0 105 86 220 l50 67 -39 -21 c-28 -14 -44 -17
-51 -10 -16 16 -5 47 15 44 10 -2 40 13 68 32 46 34 99 48 99 26 0 -5 -43 -72
-95 -149 -91 -135 -105 -164 -86 -175 12 -8 94 47 152 100 102 97 199 233 166
235 -14 1 22 17 41 18 7 1 15 -5 18 -13z m1424 -52 c0 -3 -5 -14 -10 -25 -9
-16 -7 -19 14 -19 23 0 44 -16 33 -26 -2 -2 -24 -8 -47 -12 -41 -7 -45 -11
-92 -92 -67 -118 -62 -166 11 -104 29 24 31 25 31 6 0 -21 -37 -57 -70 -67
-11 -3 -28 -1 -40 5 -32 17 -25 64 25 157 l45 83 -31 0 c-23 0 -30 4 -27 17 2
12 17 20 48 25 31 5 51 16 63 33 16 22 47 35 47 19z m970 -8 c0 -8 -6 -18 -12
-23 -9 -5 -3 -9 16 -13 44 -8 44 -28 -1 -35 -21 -3 -44 -9 -52 -13 -23 -13
-113 -194 -102 -205 19 -19 57 9 81 58 13 27 40 59 62 76 34 24 49 28 99 28
33 -1 59 -2 59 -4 0 -1 -13 -29 -30 -61 -69 -136 -9 -139 70 -4 37 63 74 100
87 87 2 -3 0 -15 -6 -26 -11 -20 -9 -20 35 4 36 19 50 22 61 14 11 -10 9 -19
-11 -53 -31 -52 -50 -60 -44 -17 4 30 4 30 -16 17 -12 -7 -48 -45 -81 -83 -48
-57 -67 -71 -95 -75 -46 -6 -59 -1 -66 27 l-6 24 -40 -29 c-38 -28 -57 -29
-85 -8 -7 6 -21 3 -39 -8 -25 -17 -28 -17 -55 -1 -25 14 -32 14 -56 2 -37 -20
-49 -19 -73 5 -19 19 -20 19 -77 -24 -32 -23 -74 -66 -93 -94 -38 -57 -72 -67
-78 -24 -3 17 10 36 44 70 25 26 58 65 72 87 l25 40 -24 -21 c-32 -28 -63 -44
-88 -44 -17 0 -21 6 -21 36 0 20 9 52 21 70 27 44 94 92 138 99 20 3 48 8 64
10 16 3 27 0 27 -7 0 -6 -22 -45 -49 -87 -80 -127 -81 -130 -12 -77 61 47 91
88 91 123 0 10 14 27 30 36 48 29 48 -1 1 -82 -46 -78 -49 -91 -23 -91 26 0
63 44 111 133 l42 77 -29 0 c-15 0 -36 6 -46 13 -17 12 -16 14 3 37 19 23 22
23 34 9 18 -24 68 -15 90 16 20 27 47 34 47 11z m-2346 -25 c9 -14 -3 -39 -21
-46 -25 -9 -34 9 -17 33 16 23 29 28 38 13z m172 -85 c14 -37 -78 -159 -154
-203 -41 -24 -46 -25 -57 -10 -11 16 -15 16 -50 1 -29 -12 -44 -13 -62 -5 -30
14 -30 47 2 102 14 24 25 53 25 64 0 12 12 28 30 38 49 29 49 -1 1 -82 -45
-77 -49 -91 -23 -91 32 1 134 110 102 110 -19 0 -10 29 16 49 24 19 64 29 64
16 0 -2 -17 -38 -37 -79 -20 -42 -34 -79 -30 -82 20 -21 139 132 130 166 -4
15 0 20 16 20 12 0 24 -6 27 -14z m1008 8 c24 -9 19 -43 -6 -53 -16 -7 -26 -5
-34 5 -9 12 -18 10 -55 -9 -24 -13 -42 -28 -39 -33 3 -5 25 -16 49 -24 82 -28
76 -71 -15 -106 -67 -25 -127 1 -94 41 11 13 14 13 25 -2 11 -14 19 -15 51 -8
38 10 56 32 32 39 -7 2 -25 7 -40 10 -89 20 -57 97 55 132 51 15 51 16 71 8z
m-844 -29 c0 -20 -27 -37 -49 -30 -21 6 -71 -19 -71 -36 0 -5 11 -7 24 -3 42
10 38 -14 -6 -38 -48 -26 -60 -53 -27 -61 47 -12 112 36 158 118 28 49 65 84
78 72 2 -3 0 -15 -6 -26 -11 -20 -9 -20 35 4 36 19 50 22 61 14 11 -10 9 -19
-11 -53 -31 -52 -50 -60 -44 -17 4 30 4 30 -16 17 -12 -7 -48 -45 -81 -84 -41
-48 -65 -69 -77 -65 -9 2 -35 -1 -57 -8 -78 -23 -135 32 -81 78 13 11 18 24
14 39 -4 14 3 30 18 48 39 44 138 66 138 31z m360 0 c0 -21 -28 -37 -50 -30
-13 4 -31 0 -45 -9 -32 -21 -32 -38 -1 -30 41 10 39 -14 -4 -36 -39 -20 -59
-44 -46 -57 14 -14 70 -2 102 22 20 15 38 24 42 21 12 -13 -14 -41 -60 -66
-39 -20 -51 -23 -84 -15 -32 8 -40 15 -42 37 -2 18 4 33 17 45 13 11 19 24 15
39 -4 14 3 30 18 48 39 44 138 66 138 31z m290 0 c0 -21 -27 -37 -50 -30 -13
4 -31 0 -45 -9 -32 -21 -32 -38 -1 -30 42 10 38 -14 -6 -38 -45 -25 -59 -51
-33 -62 18 -7 81 17 107 41 10 9 21 13 25 9 13 -13 -13 -41 -61 -65 -40 -20
-54 -22 -84 -15 -30 7 -38 14 -40 36 -2 18 4 33 17 45 13 11 19 24 15 38 -8
32 31 73 84 89 50 14 72 12 72 -9z m615 9 c14 -14 14 -19 2 -38 -20 -30 -51
-35 -42 -7 10 33 -19 26 -64 -14 -64 -58 -63 -115 1 -115 47 0 97 26 116 61
46 86 105 126 167 115 26 -5 35 -12 35 -27 0 -50 -77 -150 -134 -174 -33 -14
-55 -10 -73 12 -10 12 -16 12 -45 -3 -44 -23 -112 -24 -135 -2 -22 23 -21 77
3 118 20 33 66 66 112 80 39 12 39 12 57 -6z m1275 -9 c0 -20 -27 -37 -49 -30
-21 6 -71 -19 -71 -36 0 -5 11 -7 24 -3 41 10 39 -14 -4 -36 -40 -20 -59 -44
-46 -57 15 -15 68 -4 101 21 20 16 39 25 43 22 12 -13 -15 -41 -62 -65 -40
-20 -54 -22 -84 -15 -32 8 -37 13 -40 41 -2 24 2 34 18 43 15 8 19 17 14 34
-4 16 2 31 18 50 39 44 138 66 138 31z"/>
<path d="M7546 8978 c-130 -430 -332 -1093 -458 -1503 l-153 -500 -3 -2282 -2
-2283 330 0 330 0 0 3325 c0 2067 -4 3325 -9 3325 -6 0 -21 -37 -35 -82z"/>
<path d="M10259 647 c-24 -13 -59 -43 -76 -66 -35 -46 -40 -61 -20 -61 15 0
153 137 146 145 -3 3 -26 -5 -50 -18z"/>
<path d="M10709 641 c-32 -17 -99 -92 -99 -112 0 -30 74 22 115 81 16 22 26
42 23 45 -2 2 -20 -4 -39 -14z"/>
<path d="M10003 615 c-31 -33 -43 -54 -43 -75 0 -38 11 -38 54 1 42 36 80 95
71 109 -13 20 -39 9 -82 -35z"/>
</g>
</svg>
